<svg width="160" height="118" viewBox="0 0 120 118" fill="none" xmlns="http://www.w3.org/2000/svg">
<style>
    #check{
            stroke: #079004;
            stroke-dasharray: 300;
            stroke-dashoffset: 0;

            animation: animate-stroke 1s ease-in-out;
    }

    #border{
            stroke: #079004;
            stroke-dasharray: 600;
            stroke-dashoffset: 0;

            animation: animate-stroke 1s ease-in-out;
    }

    @keyframes animate-stroke {
        from {
            stroke-dashoffset: 600;
        }
    }
</style>

<path id="border" d="M5.51061 40.2667L3.62486 39.6104L5.51062 40.2667C9.52019 28.7466 17.609 18.482 28.0211 11.7232C35.5694 6.82333 44.4099 3.76329 53.2186 2.99342C56.0642 2.74473 60.7417 2.74456 63.5343 2.99218L63.7109 1.00039L63.5344 2.99219C67.7088 3.36227 72.4314 4.35344 76.2411 5.64265L76.2625 7.32196C76.2636 7.41113 76.2646 7.49825 76.2655 7.58332C61.1646 2.30299 44.057 4.07461 30.3438 12.4077L30.3438 12.4077C15.5696 21.3858 5.93041 36.8079 4.39633 53.9423C3.48706 64.0983 5.33222 74.0328 9.81326 83.062C15.7358 94.9961 25.894 104.407 38.1901 109.344C55.3131 116.217 74.7583 113.926 89.783 103.262C98.2719 97.2362 105.036 88.6317 108.863 78.9862L107.004 78.2485L108.863 78.9861C111.983 71.1232 113.206 62.5095 112.44 53.8697C112.322 52.528 112.055 50.5943 111.779 48.9985H112.3H113.629C115.097 57.2614 114.614 66.5194 112.272 74.5573C108.482 87.5565 100.171 98.735 88.8166 106.105C78.3764 112.881 66.1277 115.919 53.4979 114.849C41.9253 113.869 30.9888 109.28 22.054 101.647C10.7896 92.0238 3.81056 78.4722 2.57274 63.8414C1.88762 55.7425 2.87335 47.8437 5.51061 40.2667Z" stroke="black" stroke-width="4"/>
<path id="check" d="M77.1699 37.4272C88.4296 27.1598 99.6631 18.5251 112.067 10.6032C112.932 10.0511 113.256 9.91008 113.337 10.0509C113.396 10.1549 113.972 11.4703 114.615 12.9742L115.784 15.7086L112.837 18.563C96.3474 34.5349 79.1269 57.2355 66.9774 79.0168C64.7896 82.9393 61.4779 89.607 60.1192 92.8249C59.4949 94.3038 58.9715 95.5303 58.9562 95.5502C58.9261 95.5896 56.9608 93.5628 40.315 76.3256C34.2948 70.0913 28.4442 64.0422 27.3138 62.883C23.048 58.5083 18.0272 53.2753 18.0001 53.1756C17.972 53.0729 28.2732 44.6499 28.4336 44.6445C28.4795 44.6431 33.7651 48.8224 40.1793 53.9322C46.5936 59.0419 51.9151 63.2781 52.0046 63.346C52.1121 63.4274 52.8795 62.638 54.2539 61.0323C61.1232 53.0072 69.139 44.7504 77.1699 37.4272Z" stroke="black" stroke-width="8" stroke-linejoin="round"/>
</svg>
