<svg width="127" height="122" viewBox="0 0 127 122" fill="none" xmlns="http://www.w3.org/2000/svg">

<style>
    #shape{
            stroke: #BA0707;
            stroke-dasharray: 500;
            stroke-dashoffset: 300;
            fill: transparent;

            animation: animate-stroke 1s ease-in-out, animate-background .2s .5s ease-in-out forwards;
    }

    #border{
            stroke: #BA0707;
            stroke-dasharray: 500;
            stroke-dashoffset: 270;

            animation: animate-stroke 1s ease-in-out;
    }

    @keyframes animate-stroke {
        from {
            stroke-dashoffset: 500;
        }
    }

    @keyframes animate-background {
        to {
            
            fill: #BA0707;
        }
    }
</style>

<path id="shape" d="M70.013 43.4879L72.0628 45.6785L72.0628 45.6785L70.013 43.4879ZM108.973 12.7348L107.326 10.2273L107.326 10.2274L108.973 12.7348ZM67.3061 46.0538L64.8898 47.8318C65.4017 48.5275 66.1887 48.9688 67.0492 49.0427C67.9098 49.1167 68.7605 48.8161 69.3836 48.2179L67.3061 46.0538ZM60.671 36.6616L58.1863 38.3427L58.1863 38.3428L60.671 36.6616ZM51.3403 21.3413L48.6869 22.7412L48.687 22.7414L51.3403 21.3413ZM49.7196 18.2985L51.9363 16.2771L51.9351 16.2757L49.7196 18.2985ZM26.8036 29.6724L25.4641 26.9881C24.0743 27.6817 23.4437 29.3212 24.0106 30.7673L26.8036 29.6724ZM38 48.5L35.6781 50.3997C35.7194 50.4502 35.7623 50.4993 35.8068 50.547L38 48.5ZM45 56L42.8068 58.047C42.8222 58.0635 42.8378 58.0798 42.8536 58.096L45 56ZM47.7129 58.7782L45.5666 60.8741C45.5809 60.8888 45.5954 60.9034 45.6101 60.9178L47.7129 58.7782ZM51.4766 62.4084L53.7071 64.4147C54.795 63.2051 54.7207 61.3489 53.5395 60.2302L51.4766 62.4084ZM44.5171 70.4359L42.2131 68.5146C42.2084 68.5203 42.2037 68.5259 42.199 68.5316L44.5171 70.4359ZM42 73.5L39.6819 71.5957C39.6681 71.6125 39.6545 71.6294 39.641 71.6465L42 73.5ZM36.5 80.5L34.141 78.6465L34.1334 78.6562L36.5 80.5ZM27.1405 100.506L24.15 100.267C24.044 101.596 24.8272 102.835 26.0727 103.309L27.1405 100.506ZM50.3282 109.28L52.7328 111.073L52.734 111.072L50.3282 109.28ZM51.5996 106.19L48.821 105.059L48.8209 105.059L51.5996 106.19ZM59.1306 90.523L56.492 89.0955L56.492 89.0955L59.1306 90.523ZM67.3027 76.4109L69.216 74.1001C68.5472 73.5464 67.6713 73.3096 66.8146 73.4509C65.9579 73.5921 65.2044 74.0977 64.7489 74.8368L67.3027 76.4109ZM76.6413 83.8506L78.4646 81.4682L78.4646 81.4682L76.6413 83.8506ZM119.784 111.458L118.392 114.115L118.392 114.116L119.784 111.458ZM121.311 111.971L124.031 113.236L124.031 113.236L121.311 111.971ZM122.501 108.455L125.35 109.394L125.35 109.394L122.501 108.455ZM123.584 105.169L126.433 106.108C126.822 104.926 126.443 103.628 125.478 102.842L123.584 105.169ZM119.882 102.154L121.776 99.828L121.776 99.828L119.882 102.154ZM78.1451 59.9669L75.6909 58.2415C74.915 59.3451 74.9712 60.8309 75.8282 61.8728L78.1451 59.9669ZM109.959 21.6967L112.074 23.8245L112.074 23.8245L109.959 21.6967ZM113.24 18.4355L115.355 20.5633C116.237 19.6866 116.487 18.3565 115.983 17.2196L113.24 18.4355ZM111.881 15.3701L114.624 14.1542L114.624 14.154L111.881 15.3701ZM110.397 12.0934L112.979 10.566L112.979 10.5659L110.397 12.0934ZM72.0628 45.6785C84.4891 34.0507 96.8963 24.258 110.62 15.2421L107.326 10.2274C93.306 19.4377 80.6306 29.4441 67.9632 41.2974L72.0628 45.6785ZM69.3836 48.2179C70.2757 47.3616 71.1692 46.5146 72.0628 45.6785L67.9632 41.2974C67.0507 42.1513 66.1387 43.0158 65.2285 43.8896L69.3836 48.2179ZM69.7223 44.2757C67.4428 41.178 65.2485 38.0734 63.1556 34.9803L58.1863 38.3428C60.3256 41.5044 62.5656 44.6735 64.8898 47.8318L69.7223 44.2757ZM63.1556 34.9804C60.2721 30.7187 55.8271 23.416 53.9935 19.9412L48.687 22.7414C50.6466 26.455 55.2128 33.9481 58.1863 38.3427L63.1556 34.9804ZM53.9936 19.9414C53.5565 19.113 53.1544 18.3541 52.8583 17.7982C52.7106 17.5209 52.5876 17.2909 52.4992 17.127C52.4557 17.0462 52.4172 16.9752 52.3872 16.9207C52.3731 16.8952 52.3549 16.8624 52.3365 16.8302C52.3285 16.8162 52.3111 16.7858 52.2894 16.75C52.2794 16.7335 52.2572 16.6971 52.2277 16.6523C52.2131 16.63 52.187 16.5909 52.1528 16.5435C52.1296 16.5114 52.0513 16.4032 51.9363 16.2771L47.5029 20.32C47.3883 20.1942 47.3104 20.0865 47.2877 20.0551C47.254 20.0083 47.2284 19.9701 47.2144 19.9488C47.1863 19.9059 47.1657 19.8721 47.1577 19.859C47.14 19.8297 47.1279 19.8084 47.1265 19.806C47.1214 19.7971 47.1217 19.7975 47.1312 19.8147C47.1482 19.8456 47.1768 19.8981 47.2179 19.9745C47.2991 20.1251 47.4166 20.3447 47.5627 20.6188C47.8541 21.166 48.2524 21.9177 48.6869 22.7412L53.9936 19.9414ZM51.9351 16.2757C51.2474 15.7166 50.0517 15.3169 49.6714 15.2988C49.485 15.3075 49.1936 15.3447 49.0881 15.3654C48.9099 15.4037 48.7743 15.4505 48.7398 15.4624C48.6421 15.4959 48.5654 15.5281 48.5445 15.5368C48.4847 15.5618 48.4305 15.5865 48.4011 15.5999C48.3325 15.6314 48.2484 15.6712 48.16 15.7136C47.9782 15.8006 47.721 15.9257 47.4046 16.0806C46.7693 16.3917 45.8677 16.8365 44.7918 17.3691C42.6385 18.4349 39.7729 19.8591 36.9104 21.2837C34.0474 22.7086 31.1859 24.1347 29.0402 25.2045C27.9673 25.7394 27.0733 26.1853 26.4476 26.4974C26.1347 26.6535 25.8888 26.7762 25.7212 26.8598C25.6374 26.9016 25.5731 26.9337 25.5298 26.9553C25.5081 26.9661 25.4917 26.9743 25.4807 26.9798C25.4752 26.9826 25.471 26.9846 25.4683 26.986C25.4669 26.9867 25.4658 26.9872 25.4651 26.9876C25.4648 26.9878 25.4645 26.9879 25.4643 26.988C25.4642 26.9881 25.4641 26.9881 26.8036 29.6724C28.1432 32.3567 28.1433 32.3567 28.1435 32.3566C28.1437 32.3565 28.1439 32.3564 28.1443 32.3562C28.145 32.3559 28.146 32.3554 28.1474 32.3547C28.1501 32.3533 28.1543 32.3512 28.1598 32.3485C28.1707 32.343 28.1871 32.3348 28.2088 32.324C28.252 32.3025 28.3162 32.2704 28.4 32.2286C28.5675 32.1451 28.8132 32.0225 29.1259 31.8665C29.7514 31.5545 30.645 31.1088 31.7174 30.5741C33.8624 29.5046 36.7225 28.0792 39.5837 26.6553C42.4453 25.2311 45.3063 23.8092 47.4534 22.7464C48.5277 22.2146 49.4197 21.7745 50.043 21.4694C50.3559 21.3162 50.5941 21.2004 50.7517 21.1249C50.8331 21.086 50.8796 21.0642 50.8998 21.0549C50.9148 21.048 50.8946 21.0576 50.8581 21.0728C50.8488 21.0767 50.7809 21.1054 50.6893 21.1368C50.6579 21.1476 50.5247 21.1937 50.3482 21.2316C50.2435 21.2522 49.9528 21.2893 49.7669 21.298C49.3871 21.2799 48.1917 20.8802 47.5042 20.3214L51.9351 16.2757ZM24.0106 30.7673C25.8172 35.3763 30.9735 44.6497 35.6781 50.3997L40.3219 46.6003C36.0264 41.3503 31.1827 32.6237 29.5967 28.5776L24.0106 30.7673ZM35.8068 50.547L42.8068 58.047L47.1932 53.953L40.1932 46.453L35.8068 50.547ZM42.8536 58.096L45.5666 60.8741L49.8593 56.6822L47.1463 53.904L42.8536 58.096ZM45.6101 60.9178C46.8529 62.1393 48.1222 63.3634 49.4137 64.5866L53.5395 60.2302C52.274 59.0317 51.0315 57.8334 49.8158 56.6386L45.6101 60.9178ZM46.8211 72.3573C49.0168 69.7243 51.3224 67.0658 53.7071 64.4147L49.2462 60.4021C46.814 63.106 44.4592 65.8211 42.2131 68.5146L46.8211 72.3573ZM44.3181 75.4043L46.8352 72.3403L42.199 68.5316L39.6819 71.5957L44.3181 75.4043ZM38.8589 82.3535L44.3589 75.3535L39.641 71.6465L34.141 78.6465L38.8589 82.3535ZM30.131 100.744C30.1835 100.085 30.5297 98.7997 31.2406 96.9615C31.9188 95.2079 32.8285 93.2012 33.8125 91.2103C35.8213 87.1459 37.9588 83.5088 38.8665 82.3438L34.1334 78.6562C32.8225 80.3389 30.46 84.4519 28.4336 88.5519C27.4 90.6432 26.4083 92.8224 25.6445 94.7973C24.9135 96.6876 24.2772 98.6729 24.15 100.267L30.131 100.744ZM47.9236 107.486C48.5524 106.862 49.7025 106.346 50.0786 106.29C50.2646 106.28 50.5576 106.289 50.6637 106.299C50.8432 106.319 50.9803 106.352 51.0128 106.359C51.1071 106.382 51.1776 106.404 51.1875 106.407C51.2257 106.418 51.2473 106.426 51.2324 106.421C51.2128 106.414 51.1665 106.398 51.0844 106.368C50.9256 106.31 50.685 106.222 50.3687 106.104C49.7387 105.869 48.8364 105.53 47.7496 105.121C45.5774 104.301 42.6824 103.204 39.7865 102.105C36.8911 101.006 33.9965 99.9048 31.8256 99.0789C30.7402 98.666 29.8358 98.3217 29.2028 98.0807C28.8863 97.9602 28.6376 97.8656 28.4681 97.801C28.3834 97.7687 28.3184 97.744 28.2746 97.7273C28.2527 97.719 28.2361 97.7127 28.225 97.7084C28.2195 97.7063 28.2153 97.7047 28.2125 97.7036C28.2111 97.7031 28.21 97.7027 28.2093 97.7024C28.209 97.7023 28.2087 97.7022 28.2085 97.7021C28.2084 97.7021 28.2083 97.7021 27.1405 100.506C26.0727 103.309 26.0728 103.309 26.073 103.309C26.0731 103.309 26.0734 103.309 26.0738 103.31C26.0745 103.31 26.0755 103.31 26.0769 103.311C26.0797 103.312 26.0839 103.313 26.0895 103.316C26.1007 103.32 26.1173 103.326 26.1392 103.334C26.183 103.351 26.2481 103.376 26.3329 103.408C26.5026 103.473 26.7514 103.568 27.0681 103.688C27.7014 103.929 28.6062 104.274 29.6921 104.687C31.8637 105.513 34.7597 106.614 37.657 107.714C40.5538 108.814 43.4537 109.913 45.6323 110.735C46.7209 111.145 47.6331 111.488 48.2757 111.727C48.5957 111.846 48.856 111.942 49.04 112.009C49.1294 112.041 49.215 112.072 49.2849 112.096C49.3148 112.106 49.3707 112.125 49.4322 112.144C49.4537 112.151 49.5331 112.175 49.6336 112.199C49.669 112.207 49.8085 112.24 49.9897 112.261C50.0967 112.271 50.3903 112.279 50.5768 112.269C50.9534 112.214 52.1038 111.698 52.7328 111.073L47.9236 107.486ZM48.8209 105.059C48.4808 105.895 48.1687 106.658 47.9401 107.213C47.8256 107.492 47.7334 107.714 47.6696 107.867C47.6372 107.945 47.6149 107.998 47.6016 108.029C47.5942 108.046 47.5941 108.046 47.5984 108.036C47.5996 108.034 47.6096 108.011 47.6244 107.98C47.6311 107.966 47.6483 107.931 47.6721 107.885C47.6839 107.863 47.7055 107.822 47.7345 107.772C47.7539 107.739 47.8207 107.624 47.9223 107.487L52.734 111.072C52.8359 110.935 52.903 110.82 52.9229 110.786C52.9522 110.735 52.9743 110.694 52.9866 110.67C53.0115 110.623 53.03 110.584 53.0383 110.567C53.0563 110.529 53.0705 110.497 53.077 110.483C53.092 110.449 53.1066 110.415 53.1177 110.389C53.1416 110.334 53.1721 110.261 53.2064 110.179C53.276 110.012 53.3727 109.778 53.4886 109.497C53.7209 108.932 54.0361 108.162 54.3783 107.321L48.8209 105.059ZM56.492 89.0955C54.0442 93.6203 50.3567 101.286 48.821 105.059L54.3782 107.321C55.8121 103.799 59.3978 96.334 61.7693 91.9504L56.492 89.0955ZM64.7489 74.8368C61.8216 79.5862 59.0545 84.3588 56.492 89.0955L61.7692 91.9505C64.2747 87.3193 66.9848 82.6445 69.8566 77.9849L64.7489 74.8368ZM65.3895 78.7216C68.5096 81.3049 71.6666 83.8211 74.818 86.2329L78.4646 81.4682C75.3763 79.1047 72.2792 76.6363 69.216 74.1001L65.3895 78.7216ZM74.818 86.2329C89.03 97.1099 103.062 106.09 118.392 114.115L121.175 108.8C106.158 100.938 92.4145 92.1446 78.4646 81.4682L74.818 86.2329ZM118.392 114.116C118.908 114.385 119.465 114.664 119.958 114.83C120.168 114.9 120.693 115.069 121.334 115.037C121.693 115.02 122.219 114.934 122.764 114.62C123.35 114.282 123.776 113.785 124.031 113.236L118.591 110.706C118.826 110.2 119.222 109.736 119.767 109.422C120.272 109.131 120.746 109.059 121.04 109.044C121.332 109.03 121.553 109.067 121.659 109.088C121.774 109.111 121.849 109.135 121.87 109.143C121.884 109.147 121.717 109.083 121.175 108.8L118.392 114.116ZM124.031 113.236C124.127 113.03 124.235 112.711 124.27 112.61C124.343 112.404 124.437 112.128 124.546 111.805C124.765 111.159 125.05 110.304 125.35 109.394L119.652 107.516C119.356 108.414 119.075 109.253 118.863 109.881C118.756 110.196 118.668 110.453 118.605 110.634C118.573 110.726 118.55 110.791 118.535 110.832C118.499 110.931 118.532 110.833 118.59 110.706L124.031 113.236ZM125.35 109.394L126.433 106.108L120.735 104.23L119.652 107.516L125.35 109.394ZM125.478 102.842L121.776 99.828L117.988 104.481L121.69 107.495L125.478 102.842ZM121.776 99.828C107.967 88.5848 93.4251 73.8196 80.4619 58.0611L75.8282 61.8728C88.9992 77.8839 103.819 92.9446 117.988 104.481L121.776 99.828ZM107.844 19.5688C96.9091 30.4365 85.7585 43.9224 75.6909 58.2415L80.5992 61.6924C90.5018 47.6079 101.43 34.4025 112.074 23.8245L107.844 19.5688ZM111.125 16.3077L107.844 19.5689L112.074 23.8245L115.355 20.5633L111.125 16.3077ZM109.139 16.586L110.498 19.6514L115.983 17.2196L114.624 14.1542L109.139 16.586ZM107.815 13.6209C107.743 13.5001 107.701 13.4046 107.746 13.498C107.763 13.5351 107.792 13.595 107.831 13.6804C107.91 13.8493 108.019 14.0877 108.152 14.3811C108.417 14.9661 108.767 15.7488 109.139 16.5862L114.624 14.154C114.247 13.3055 113.89 12.5079 113.617 11.9052C113.481 11.6047 113.363 11.3473 113.274 11.1544C113.231 11.0633 113.094 10.7605 112.979 10.566L107.815 13.6209ZM110.62 15.2423C111.116 14.9165 111.266 14.8427 111.245 14.852C111.223 14.8619 111.149 14.8946 111.035 14.9291C110.931 14.9611 110.713 15.0195 110.421 15.0341C110.126 15.0488 109.646 15.024 109.114 14.784C108.54 14.525 108.099 14.1018 107.815 13.621L112.979 10.5659C112.671 10.0457 112.198 9.59316 111.583 9.31543C111.01 9.05666 110.479 9.02372 110.121 9.04158C109.482 9.07354 108.978 9.29233 108.78 9.38161C108.313 9.59222 107.797 9.91779 107.326 10.2273L110.62 15.2423Z" fill="#BA0707"/>
<path id="border" d="M76.43 5.0901C64.3549 1.75765 51.5255 2.42404 39.8607 6.98958C28.1959 11.5551 18.3226 19.7744 11.7177 30.4181C5.11286 41.0618 2.13135 53.5577 3.21918 66.0369C4.307 78.516 9.40569 90.3076 17.7526 99.6479C26.0995 108.988 37.246 115.375 49.5248 117.854C61.8037 120.332 74.5549 118.768 85.8712 113.397" stroke="#BA0707" stroke-width="6"/>
</svg>
